<?xml version="1.0" encoding="UTF-8"?>
<!DOCTYPE svg PUBLIC "-//W3C//DTD SVG 1.1//EN" "http://www.w3.org/Graphics/SVG/1.1/DTD/svg11.dtd">
<!-- Creator: CorelDRAW -->
<svg xmlns="http://www.w3.org/2000/svg" xml:space="preserve" width="34.8187mm" height="34.8187mm" version="1.1" style="shape-rendering:geometricPrecision; text-rendering:geometricPrecision; image-rendering:optimizeQuality; fill-rule:evenodd; clip-rule:evenodd"
viewBox="0 0 3481.88 3481.88"
 xmlns:xlink="http://www.w3.org/1999/xlink"
 xmlns:xodm="http://www.corel.com/coreldraw/odm/2003">
 <defs>
  <style type="text/css">
   <![CDATA[
    .fil2 {fill:black}
    .fil0 {fill:#2F4073}
    .fil1 {fill:#EDEDED}
   ]]>
  </style>
 </defs>
 <g id="Layer_x0020_1">
  <metadata id="CorelCorpID_0Corel-Layer"/>
  <g id="_2041860057072">
   <polygon class="fil0" points="-0,0 3481.88,0 3481.88,3481.88 -0,3481.88 "/>
   <path class="fil1" d="M1073.85 2299.14c70.94,-411.65 217.69,-687.55 459.42,-793.38l43.6 -5.09 47.16 7.9 51.87 -54.3 57.27 -120.73 -102.5 -117.78 -45.85 -96.35 -61.3 9.09 -69.84 -64.54 134.42 -544.98 651.76 31.67 53.8 70.41 -24.86 7.41 6.44 130.69 39.46 420.16 -169.42 234.1 -181.64 49.36 66.44 87.99 27.59 -22.31 101.26 96.54 107.18 176.98 57.45 197.96 53.29 328.1 -40.86 37.54 21.2 244.69 53.43 401.55c53.17,255.47 -1351.83,214.59 -1323.21,-5.54l63.05 -652.21 -76.61 -54.93z"/>
   <g>
    <path class="fil2" d="M1605.67 759.49c37.7,-22.37 94.64,-17.13 86.91,-78.16 -2.75,-21.68 -23.18,-36.01 -28.9,-55.66 -7.84,-26.96 8.31,-46.81 16.98,-64.38 44.44,7.4 88.88,19.17 136.46,26.4 100.86,15.31 195.1,22.56 296.85,7.98 48.36,-6.93 90.05,-24.57 128.48,-30.7 20.09,20.41 10.05,6.78 16.88,31.22 5.69,20.4 6.06,10.52 25.37,23.67 -15.03,8.62 -17.05,1.14 -20.67,2.8 -7.33,91.23 4.72,235.58 12.71,328.21 18.77,217.44 34.52,214.86 -80.97,359.88 -23.99,30.13 -71.4,77.61 -107.9,99.91 -58.14,35.51 -135.33,20.84 -183.82,-24.71 -52.52,-49.33 -80.05,14.11 -28.31,54.81 15.74,12.38 40.44,21.6 63.79,29.17 33.6,10.89 23.92,22.8 40.52,52.37 17.65,31.44 17.1,30.58 45.43,47.41 -4.45,40.85 -27.71,83.39 -49.6,114.03 -36.88,51.62 -106.13,90.93 -186.8,69.23 -97.74,-26.28 -172.99,-135.9 -210.76,-222.83 93.03,-0.39 148.04,-109.68 156.4,-180.96 24.49,-4.49 34.09,-7.08 33.81,-32.83 -14.42,-12.96 -41.69,-24.12 -57.81,-38.13 -28.43,-24.71 -83.5,-99.62 -106.63,-136.71 -12.87,-20.63 -3.83,-12.05 -9.1,-35.12 -35.61,-13.89 -45.98,8.15 -80.53,-7.83 -20.43,-9.46 -34.89,-26.77 -39.04,-55.33 -8.56,-58.94 28.17,-105.03 81.08,-110.49l23.47 20.73c1.8,0.42 27.6,-3.33 27.73,-3.32 -1.68,-7.06 -4.62,-175.31 -2.03,-190.66zm-4.25 -406.76l18.07 -43.68c-34.46,11.24 -49.78,46.04 -54.72,91.67 -17.57,-10.08 -61.22,-42.09 -90.14,-21.46 29.98,21.64 37.33,9.52 67.11,42.86 -48.25,-6.09 -87.66,-1.38 -98.44,42.96 -8.28,34.07 11.05,36.45 0.09,57.39 -14.35,27.41 -7.37,36.68 5.33,56.68 -16.4,20.64 -36.88,46.18 -23.6,86.35l16.09 -15.6c-45.89,169.51 27.94,276.74 11.53,311.35 -50.69,106.86 12.89,212.94 134.74,179.09 15.33,29.13 8.53,46.39 47.56,111.91 36.66,61.56 38.39,49.25 70.46,87.34 -18.29,42.16 -36.8,146.31 -124.84,182.69 -0.59,0.24 -1.92,0.61 -2.46,0.81l-7.43 2.37c36.22,166.9 193.44,320.43 343.28,247.06 70.38,-34.47 115.22,-106.09 133.84,-180.75 2.4,-9.65 3.41,-15.47 4.93,-25.33 0.27,-1.79 2.38,-14.86 2.4,-14.92l7.41 -14.92c9.01,17.74 88.42,102.58 121.05,149.42 130.79,187.71 122.31,315.3 154.02,532.21 5.5,37.63 16.37,81.24 19.54,116.69 -39.57,14.39 -72.95,33.97 -113.77,49.39l-10.83 -342.69c-0.51,10.01 -10.25,90.3 -11.14,112.47 -4.84,121.23 -0.43,269.15 6.24,389.08 8.09,145.46 21.7,281.55 41.79,424.9 3.25,23.15 3.75,38.89 25.09,38.88 14.58,-27.25 -4.27,-105.54 -8.69,-140.23 -12.6,-98.81 -45.39,-367.6 -38.83,-441.43 24.68,8.12 65.12,-19.61 86.72,-30.85 7.28,44 7.46,114.98 10.25,161.97 3.22,54.23 6.18,107.19 11.46,161.3l27.3 233.51c3.89,29.33 -0.03,56.45 27.79,60.6 21.71,-26.18 -0.99,-115.99 -5.67,-152.83 -6.72,-52.92 -13.03,-104.7 -20.3,-156.71 -14.34,-102.66 -31.93,-211.06 -41.36,-314.46 78.18,-23.59 43.14,-46.61 26.74,-148.71 -20.59,-128.22 -25.71,-258.61 -65.5,-381.83 -32.93,-101.98 -100,-207.13 -172.55,-274.41 -15.16,-14.05 -62.66,-57.5 -88.67,-63.33l-13.3 12.88c-15.8,-14.12 -25.44,-21.25 -35.19,-46.19 79.2,7.54 109,-15.93 165.87,-64.54 8.18,-6.99 14.67,-10.47 22.35,-17.74 49.87,-47.18 125.04,-127.22 149.41,-208.83 32.95,-110.39 -41.29,-441.03 -60.84,-564.37 64.75,-0.79 116.11,-45.26 72.73,-65.95 16.53,-15.45 12.44,-19.89 12.51,-48.39 0.06,-26.62 13.44,-25.65 -4.14,-52.71 -20.77,-31.95 -45.95,-43.32 -63.23,-69.52 -21.21,-32.18 1.35,-12.44 -34.44,-31.95 -29.59,-16.12 -19.09,-43.09 -117.76,-78.41 6.71,9.3 24.45,16.78 35.02,23.96 11.93,8.09 27.25,22.32 34.06,31.57 -70.22,-40.3 -163.17,-70.27 -259.69,-81.78 14.7,-4.92 6.16,0.87 11.43,-10.04 -52.92,-21.85 -60.44,-2.29 -104.95,-3.61 -47.96,-1.42 -106.56,1.77 -147.01,28.28 -18.8,12.33 -15.41,17.45 -32.63,29.34l-72.09 51.19z"/>
    <path class="fil2" d="M1121.72 2356.51c-30.85,227.57 -45.46,349.92 -50.67,576.21 -0.74,31.89 -7.32,61.48 16.36,73.56 24.88,-10.86 19.56,-30.31 19.99,-60.15l9.16 -255.87c3.52,-63.47 14.34,-272.42 21.58,-321.9 14.46,7.1 29.31,18.34 43.88,27.2 17.16,10.43 33.6,19.23 51.89,27.94 50.93,24.26 68,21.3 122.82,35.74 8.73,71.28 -47.77,546.18 -23.09,593.34l17.4 -1.49c18.51,-27.25 21.76,-326.95 24.02,-383.85 5.04,-127.31 16.73,-270.61 6.95,-396.74 -15.93,27.79 -17.38,113.49 -21.07,152.49 -79.65,-1.97 -154.37,-46.39 -214.67,-88.93 -17.49,-12.34 -45.62,-29.4 -58.9,-42.99 -0.64,-60.53 42.25,-200.19 60.21,-258.38 31.43,-101.77 95.33,-242.04 157.32,-325.15 48.29,-64.73 89.81,-115.18 160.93,-157.65 35.08,-20.96 73.76,-30.64 111.04,-49.21 -100.76,-27.61 -233.54,105.88 -276.25,167.16 -11.89,17.05 -24.92,34.21 -36.19,52.37 -23.01,37.04 -44.14,73.2 -65.11,116.26 -40.87,83.95 -69.88,165.65 -97.79,260.58 -14.13,48.06 -24.31,97.25 -33.88,147.13 -17.75,92.58 7.92,71.49 54.07,112.33z"/>
    <path class="fil2" d="M1503.59 1015.29c76.11,-4.39 80.66,34.12 102.06,36.38 14.27,1.51 24.52,-9.94 20.65,-24.61 -9,-34.11 -103.62,-53.31 -122.71,-11.77z"/>
   </g>
  </g>
 </g>
</svg>
